<svg width="100" height="100" viewBox="0 0 100 100" fill="none" xmlns="http://www.w3.org/2000/svg">
<mask id="mask0_151_271" style="mask-type:alpha" maskUnits="userSpaceOnUse" x="0" y="0" width="100" height="100">
<rect width="100" height="100" fill="#D9D9D9"/>
</mask>
<g mask="url(#mask0_151_271)">
<path d="M25.2023 31.771C25.2023 31.771 26.5406 57.5277 41.0953 57.5277C55.65 57.5277 56.4864 31.771 56.4864 31.771" stroke="#706F6F" stroke-width="3" stroke-linecap="round" stroke-linejoin="round"/>
<path d="M48.0346 27.254H59.4107C59.4107 27.254 61.4985 27.5886 61.4985 29.3419C61.4985 31.0951 59.3237 31.5167 59.3237 31.5167H22.3582C22.3582 31.5167 20.1833 31.1018 20.1833 29.3419C20.1833 27.5819 22.2712 27.254 22.2712 27.254H33.6472" stroke="#706F6F" stroke-width="3" stroke-linecap="round" stroke-linejoin="round"/>
<path d="M38.278 22.737V6.50943C38.278 6.50943 37.9434 4 40.7005 4C43.4575 4 43.4173 6.71687 43.4173 6.71687V22.7303" stroke="#706F6F" stroke-width="3" stroke-linecap="round" stroke-linejoin="round"/>
<path d="M23.2081 26.4176C23.2081 26.4176 22.2043 16.5472 27.5578 12.0302C32.9112 7.51327 37.5821 7.84786 37.5821 7.84786" stroke="#706F6F" stroke-width="3" stroke-linecap="round" stroke-linejoin="round"/>
<path d="M58.4738 26.4176C58.4738 26.4176 59.4776 16.5472 54.1242 12.0302C48.7707 7.51327 44.0999 7.84786 44.0999 7.84786" stroke="#706F6F" stroke-width="3" stroke-linecap="round" stroke-linejoin="round"/>
<path d="M36.0966 38.1014C36.0966 39.0851 35.3002 39.8815 34.3165 39.8815C33.3328 39.8815 32.5365 39.0851 32.5365 38.1014C32.5365 37.1177 33.3328 36.3214 34.3165 36.3214C35.3002 36.3214 36.0966 37.1177 36.0966 38.1014Z" fill="#706F6F"/>
<path d="M49.1455 38.1014C49.1455 39.0851 48.3492 39.8815 47.3655 39.8815C46.3818 39.8815 45.5854 39.0851 45.5854 38.1014C45.5854 37.1177 46.3818 36.3214 47.3655 36.3214C48.3492 36.3214 49.1455 37.1177 49.1455 38.1014Z" fill="#706F6F"/>
<path d="M31.7204 52.5958L30.3552 61.3755L41.7849 89.307L52.0099 61.3755L50.6515 52.5958" stroke="#706F6F" stroke-width="3" stroke-linecap="round" stroke-linejoin="round"/>
<path d="M2.10905 91.1473C2.10905 91.1473 1.13878 73.414 4.98656 69.9075C8.83435 66.3943 29.5722 61.0409 29.5722 61.0409" stroke="#706F6F" stroke-width="3" stroke-linecap="round" stroke-linejoin="round"/>
<path d="M13.5185 91.1473C13.5185 91.1473 13.6054 82.903 11.2834 76.3852C9.68403 71.9084 4.98645 69.9009 4.98645 69.9009" stroke="#706F6F" stroke-width="3" stroke-linecap="round" stroke-linejoin="round"/>
<path d="M28.2406 61.3956L22.2113 69.9076H30.3552L26.2866 76.0908L41.7848 89.3071L53.2612 79.1423" stroke="#706F6F" stroke-width="3" stroke-linecap="round" stroke-linejoin="round"/>
<path d="M30.5626 60.0371L41.1825 65.2233L52.0098 61.3755" stroke="#706F6F" stroke-width="3" stroke-linecap="round" stroke-linejoin="round"/>
<path d="M34.7516 72.1225L41.1824 65.2233L47.3656 71.721" stroke="#706F6F" stroke-width="3" stroke-linecap="round" stroke-linejoin="round"/>
<path d="M93.1302 75.1398C95.8197 63.7447 88.7624 52.3268 77.3673 49.6373C65.9721 46.9478 54.5542 54.0051 51.8648 65.4003C49.1753 76.7954 56.2326 88.2132 67.6277 90.9027C79.0229 93.5922 90.4407 86.535 93.1302 75.1398Z" stroke="#706F6F" stroke-width="3" stroke-linecap="round" stroke-linejoin="round"/>
<path d="M60.3879 69.4926L68.8531 77.9577L83.9966 62.8075" stroke="#706F6F" stroke-width="3" stroke-linecap="round" stroke-linejoin="round"/>
</g>
</svg>
