<svg width="69" height="25" viewBox="0 0 69 25" fill="none" xmlns="http://www.w3.org/2000/svg">
<path fill-rule="evenodd" clip-rule="evenodd" d="M12.1566 2.80784C11.4989 2.01616 10.6659 1.38826 9.72352 0.973702C8.5707 0.474649 7.32297 0.232075 6.06696 0.262806H1.47842C1.04947 0.205764 0.617217 0.341098 0.297499 0.632515C0.0761073 0.973844 -0.0264152 1.37863 0.00582512 1.78414V15.9876C-0.0264714 16.3886 0.0761834 16.7889 0.297499 17.1251C0.622899 17.4055 1.05216 17.5347 1.47842 17.4805H6.3444C7.59005 17.5247 8.8291 17.2815 9.96543 16.7696C10.8911 16.331 11.6949 15.672 12.3059 14.8502C12.9091 14.0217 13.3353 13.078 13.558 12.0778C13.8086 11.0083 13.9327 9.91315 13.9279 8.8148C13.9314 7.71116 13.7903 6.61181 13.5082 5.54475C13.2559 4.55734 12.7977 3.63439 12.1637 2.83622L12.1566 2.80784ZM9.90152 10.9617C9.78565 11.5737 9.54338 12.1547 9.19008 12.6678C8.85114 13.1517 8.38957 13.5369 7.85271 13.7839C7.1803 14.0758 6.45118 14.2143 5.71848 14.1891H3.72656V3.52587H5.63311C6.36543 3.50554 7.0935 3.64373 7.76734 3.93101C8.33156 4.17152 8.82242 4.55648 9.19008 5.04712C9.5426 5.54233 9.78515 6.10705 9.90152 6.7035C10.0401 7.39137 10.1069 8.09178 10.1007 8.79348C10.1071 9.52106 10.0404 10.2474 9.90152 10.9617ZM43.2377 14.3384C43.13 14.2696 43.002 14.2395 42.8749 14.2531H36.6075C36.1888 14.2723 35.7743 14.1631 35.4194 13.9403C35.0696 13.6244 34.899 13.1558 34.9642 12.6891V0.781824C34.9858 0.632301 34.9445 0.480496 34.8503 0.362417C34.7065 0.278422 34.5391 0.243554 34.3737 0.262878H31.7842C31.6307 0.249116 31.4772 0.289331 31.3502 0.376607C31.2482 0.485558 31.1989 0.633513 31.2151 0.781824V12.9593C31.2173 13.5126 31.2841 14.0637 31.4143 14.6014C31.6732 15.714 32.4513 16.6344 33.5058 17.0753C34.2171 17.3609 34.9806 17.4941 35.7467 17.4663H42.8607C43.1666 17.4663 43.3231 17.2957 43.3231 16.9544V14.7721C43.3231 14.5446 43.3231 14.3953 43.2235 14.3384H43.2377ZM54.8975 2.96428V0.796085C54.914 0.651196 54.8786 0.505167 54.7979 0.383808C54.6843 0.303307 54.5449 0.267869 54.4066 0.284269H41.8362C41.7049 0.271862 41.5735 0.307228 41.4662 0.383808C41.3885 0.506379 41.3558 0.652123 41.3737 0.796085V2.9856C41.3737 3.31267 41.5232 3.47617 41.8362 3.47617H46.1828V16.983C46.1678 17.129 46.2171 17.2743 46.3179 17.381C46.445 17.4683 46.5985 17.5085 46.7519 17.4948H49.3628C49.5282 17.5142 49.6955 17.4792 49.8394 17.3953C49.9325 17.2794 49.9737 17.1302 49.9532 16.983V3.47617H54.3924C54.5275 3.49542 54.664 3.44993 54.7605 3.35345C54.857 3.25698 54.9025 3.12072 54.8833 2.9856L54.8975 2.96428ZM68.9476 16.9759L63.8754 1.61365C63.7989 1.36651 63.6964 1.12822 63.5694 0.902755C63.3877 0.566773 63.0529 0.341026 62.6731 0.298458C62.4361 0.285837 62.1986 0.285837 61.9617 0.298458H60.4891C60.2693 0.29582 60.0497 0.317282 59.8346 0.362489C59.66 0.394219 59.4947 0.464666 59.3509 0.568627C59.2014 0.677293 59.0755 0.815123 58.9809 0.973844C58.8553 1.19731 58.7596 1.43632 58.6964 1.68474L53.5957 16.9759C53.5593 17.0867 53.5593 17.2063 53.5957 17.3171C53.5957 17.4166 53.745 17.4664 53.9229 17.4664H56.7685C56.9358 17.4861 57.1047 17.4458 57.2451 17.3527C57.3474 17.2571 57.4192 17.1334 57.4514 16.9972L58.4545 13.8551H64.0675L65.0279 17.0541C65.0494 17.2007 65.1468 17.3249 65.2839 17.381C65.4312 17.4269 65.585 17.4486 65.7392 17.4451H68.6559C68.8362 17.4451 68.9429 17.3882 68.9761 17.2744C69.008 17.1702 69.008 17.0588 68.9761 16.9546L68.9476 16.9759ZM59.3367 10.8479L60.2686 7.73426L61.2005 4.22963H61.3499L62.2534 7.73426L63.1853 10.8479H59.3367ZM28.0848 14.2319H20.0104V9.96649H27.0533C27.2453 9.96649 27.3734 9.92385 27.4303 9.83144C27.4978 9.69996 27.5274 9.55229 27.5157 9.4049V7.49262C27.5307 7.33368 27.5011 7.17368 27.4303 7.03057C27.3734 6.94522 27.2453 6.90258 27.0533 6.90258H20.0104V3.49749H27.8358C27.9697 3.51446 28.1045 3.47303 28.2057 3.38369C28.2859 3.25677 28.321 3.10653 28.3053 2.95722V0.874305C28.3191 0.713088 28.2897 0.551157 28.22 0.405128C28.1171 0.308298 27.9756 0.263805 27.8358 0.284269H16.7593C16.6279 0.269794 16.4958 0.305375 16.3894 0.383808C16.3086 0.505167 16.2733 0.651196 16.2898 0.796085V16.9545C16.2717 17.1009 16.3215 17.2475 16.4249 17.3526C16.5493 17.4399 16.7005 17.4802 16.8518 17.4664H28.0848C28.2293 17.4866 28.3749 17.4364 28.4761 17.3313C28.548 17.2012 28.5801 17.0529 28.5686 16.9047V14.8219C28.5867 14.6582 28.5571 14.4928 28.4832 14.3456C28.4263 14.2674 28.2911 14.2319 28.0848 14.2319Z" fill="white"/>
<path fill-rule="evenodd" clip-rule="evenodd" d="M28.6759 22.0892C28.8746 21.7192 29.2918 21.4953 29.7358 21.5204L29.7714 21.5931C30.6179 21.5931 31.1942 22.228 31.1942 23.2863C31.1942 24.4636 30.4259 24.9993 29.6149 24.9993C29.027 25.0164 28.4855 24.7035 28.2419 24.2056C28.0595 23.7678 27.9794 23.2988 28.0072 22.8299C27.9835 22.3832 28.0412 21.936 28.1779 21.5071C28.3701 21.011 28.7669 20.6064 29.2805 20.3827L30.6464 19.8139C30.6891 19.761 30.8242 19.7015 30.8741 19.8139L31.123 20.31C31.1372 20.3364 31.1657 20.4224 31.0234 20.4819L29.5153 21.0772C29.0593 21.2414 28.737 21.6249 28.6759 22.0759V22.0892ZM6.18192 21.4145L5.59858 21.5204C5.47764 21.5204 5.44208 21.5204 5.3496 21.6592L4.63821 22.8034L4.62232 22.8299H4.62232H4.62231H4.6223C4.4934 23.0443 4.37427 23.2424 4.18293 23.6236C4.18293 23.544 4.19117 23.4169 4.19972 23.285C4.20893 23.143 4.21849 22.9955 4.21849 22.8961V21.4807C4.21849 21.3814 4.16158 21.3881 4.10467 21.4013L3.43597 21.5269C3.29309 21.5269 3.29337 21.5814 3.29366 21.6382L3.29369 21.646V24.7216C3.29369 24.8075 3.29369 24.8142 3.4004 24.8142H4.11178C4.1938 24.8142 4.20867 24.7882 4.23579 24.7407C4.23925 24.7347 4.24292 24.7283 4.24695 24.7216L4.95833 23.531C5.11506 23.2745 5.25521 23.0094 5.37805 22.7373V23.4649V24.7216C5.37805 24.8075 5.37805 24.8142 5.48476 24.8142H6.19615C6.28863 24.8142 6.29574 24.8142 6.29574 24.7216V21.4807C6.29574 21.3814 6.23883 21.3881 6.18192 21.4013V21.4145ZM2.56099 21.6196C2.29606 21.4756 1.99264 21.4045 1.68599 21.4145C0.810977 21.4145 0 21.904 0 23.2466C0 24.5893 0.789637 24.9531 1.62908 24.9531C1.91539 24.9544 2.19805 24.8933 2.45429 24.7745C2.56099 24.7216 2.63924 24.6489 2.63924 24.5959C2.64323 24.574 2.64323 24.5517 2.63924 24.5298L2.42583 24.0601C2.40991 24.0539 2.39195 24.0539 2.37603 24.0601C2.29642 24.0832 2.22177 24.119 2.1555 24.166C2.01915 24.2454 1.86111 24.2868 1.70021 24.285C1.45972 24.2937 1.23436 24.1761 1.11687 23.9808C1.00473 23.7463 0.958232 23.4891 0.981712 23.2334C0.960457 22.947 1.00909 22.6599 1.12399 22.3934C1.2232 22.1901 1.44624 22.0641 1.68599 22.076C1.85961 22.0764 2.02875 22.1272 2.16973 22.2214C2.21032 22.2451 2.24367 22.267 2.27172 22.2854C2.32233 22.3186 2.35568 22.3405 2.38314 22.3405C2.39886 22.3476 2.41722 22.3476 2.43294 22.3405L2.70326 21.904C2.71032 21.8847 2.71032 21.8637 2.70326 21.8444C2.70326 21.8048 2.70326 21.7386 2.53965 21.6593L2.56099 21.6196ZM8.67185 21.4145C8.98065 21.4058 9.28596 21.4768 9.55396 21.6196L9.53263 21.6262C9.68916 21.7056 9.68916 21.7717 9.68916 21.8114C9.6962 21.8307 9.6962 21.8516 9.68916 21.8709L9.41882 22.3074C9.4034 22.3157 9.38442 22.3157 9.36899 22.3074C9.3402 22.3074 9.30487 22.2833 9.2522 22.2473C9.22682 22.23 9.19739 22.2099 9.1627 22.1884C9.0191 22.0941 8.84772 22.0432 8.67185 22.0429C8.43414 22.032 8.21363 22.1582 8.11695 22.3604C7.99795 22.6259 7.94677 22.9134 7.9676 23.2004C7.94535 23.4567 7.9944 23.714 8.10984 23.9478C8.22493 24.1419 8.44772 24.2596 8.68607 24.252C8.84921 24.2539 9.00958 24.2125 9.14848 24.1329C9.17343 24.1194 9.19781 24.1047 9.22099 24.0907C9.27715 24.0569 9.32669 24.0271 9.36188 24.0271C9.38562 24.0286 9.40695 24.041 9.41882 24.0601L9.62511 24.5496C9.62924 24.5715 9.62924 24.5939 9.62511 24.6157C9.62511 24.6687 9.55396 24.7414 9.44726 24.7943C9.18879 24.9139 8.90366 24.9751 8.61491 24.9729C7.78264 24.9729 6.99298 24.6091 6.99298 23.2665C6.99298 21.9238 7.80396 21.4145 8.67185 21.4145ZM12.8049 21.5071H10.1728C10.0874 21.5071 10.0661 21.5071 10.0661 21.5997V22.076C10.0661 22.1487 10.0661 22.1685 10.1728 22.1685H10.998V24.7216C10.998 24.8075 10.998 24.8142 11.0976 24.8142H11.8089C11.9014 24.8142 11.9156 24.8142 11.9156 24.7216V22.1818H12.7124C12.748 22.1818 12.7978 22.1818 12.8191 22.0892L12.9258 21.6394C12.9258 21.6274 12.9273 21.6153 12.9286 21.6036C12.9347 21.5513 12.94 21.5071 12.812 21.5071H12.8049ZM13.1252 23.2797C13.1252 22.2148 13.6943 21.4145 14.7115 21.4145C15.4214 21.3604 16.0487 21.8411 16.1272 22.4992C16.1827 22.7315 16.209 22.969 16.2055 23.2069C16.2055 23.4252 16.1343 23.4252 16.0418 23.4252H14.0855C14.0855 23.9147 14.2847 24.2652 14.8823 24.2652C15.1282 24.2612 15.3705 24.2093 15.5936 24.1131C15.6526 24.0798 15.7177 24.0574 15.7857 24.0469C15.8218 24.0457 15.8542 24.0675 15.864 24.0998L16.0489 24.4967C16.0541 24.5162 16.0541 24.5367 16.0489 24.5562C16.0489 24.6224 15.992 24.6686 15.928 24.7084C15.5756 24.8894 15.1781 24.9807 14.7756 24.9729C14.3006 24.9933 13.8406 24.8154 13.5213 24.4878C13.202 24.1603 13.0567 23.7172 13.1252 23.2797ZM15.1883 22.7969H14.043C14.0856 22.3339 14.2493 22.0362 14.6618 22.0362C14.9535 22.0362 15.0958 22.195 15.1527 22.4529C15.1796 22.5658 15.1915 22.6813 15.1883 22.7969ZM20.1185 21.5264C20.1731 21.5242 20.239 21.5215 20.239 21.6262L20.4168 24.7216L20.417 24.7359C20.418 24.7874 20.4187 24.8208 20.2817 24.8208H19.7837H19.773C19.712 24.8212 19.6485 24.8215 19.6485 24.7216L19.5418 22.5654C19.4707 22.8035 19.3782 23.0945 19.2928 23.3327L18.9016 24.3445C18.866 24.424 18.8162 24.424 18.7593 24.424H18.3609L18.3509 24.4241L18.342 24.4243H18.3419C18.2929 24.4256 18.2502 24.4267 18.2186 24.3445L17.8274 23.3327C17.742 23.0945 17.6495 22.8035 17.5784 22.5654L17.5144 24.7216C17.5144 24.8208 17.4432 24.8208 17.3792 24.8208H16.8812C16.7461 24.8208 16.7461 24.7811 16.7461 24.7216L16.931 21.6262C16.9382 21.527 17.0235 21.527 17.0733 21.527H17.6851L17.6944 21.5269C17.7414 21.5265 17.8345 21.5256 17.8345 21.5997L18.3894 23.035C18.4739 23.2684 18.5404 23.5071 18.5886 23.7493C18.6341 23.5072 18.6982 23.2685 18.7806 23.035L19.3426 21.5997C19.3711 21.527 19.4422 21.527 19.492 21.527H20.0967C20.1036 21.527 20.1109 21.5267 20.1185 21.5264ZM25.3319 21.4145L24.6637 21.5402C24.528 21.5402 24.5283 21.5944 24.5286 21.6511V21.6592V24.7216C24.5286 24.8075 24.5286 24.8142 24.6282 24.8142H25.339C25.3889 24.8142 25.4137 24.8142 25.4262 24.8026C25.4385 24.791 25.4385 24.7678 25.4385 24.7216V21.4807C25.4385 21.3814 25.3817 21.3881 25.3248 21.4013L25.3319 21.4145ZM22.5295 22.6646C22.9318 22.6221 23.337 22.7186 23.6677 22.9357V22.9093C23.9125 23.1081 24.0439 23.4014 24.0234 23.703C24.0462 24.0239 23.9036 24.3357 23.6392 24.543C23.2803 24.7571 22.8544 24.8525 22.4299 24.8142H21.3059C21.1992 24.8142 21.1992 24.8075 21.1992 24.7216V21.646V21.6389C21.1991 21.6117 21.1991 21.5937 21.2074 21.5801C21.2236 21.5535 21.2721 21.5438 21.4156 21.515L21.4553 21.5071L22.0102 21.4013C22.0671 21.3881 22.124 21.3814 22.124 21.4807V22.6646H22.5295ZM22.487 24.1396H22.1242V23.3459H22.5652C22.7218 23.3459 23.1059 23.3459 23.1059 23.7559C23.1059 24.166 22.7573 24.166 22.487 24.166V24.1396ZM29.622 24.3247C29.06 24.3247 29.0244 23.7162 29.0244 23.2863C29.0244 22.8564 29.0244 22.2677 29.622 22.2677C30.2196 22.2677 30.2196 22.8697 30.2196 23.2863C30.2196 23.703 30.2196 24.3247 29.622 24.3247ZM31.6851 23.2797C31.6851 22.2148 32.2542 21.4145 33.2715 21.4145C33.9787 21.3641 34.6016 21.8438 34.6801 22.4992C34.7355 22.7315 34.7618 22.969 34.7583 23.2069C34.7583 23.4252 34.6872 23.4252 34.5947 23.4252H32.6383C32.6383 23.9147 32.8375 24.2652 33.4423 24.2652C33.6882 24.2614 33.9305 24.2095 34.1536 24.1131C34.2125 24.0798 34.2777 24.0574 34.3457 24.0469C34.3818 24.0457 34.4141 24.0675 34.424 24.0998L34.6089 24.4967C34.614 24.5162 34.614 24.5367 34.6089 24.5562C34.5992 24.6209 34.5569 24.6774 34.4951 24.7084C34.1395 24.8879 33.7401 24.9791 33.3356 24.9729C32.8606 24.9933 32.4006 24.8154 32.0812 24.4878C31.7619 24.1603 31.6167 23.7172 31.6851 23.2797ZM33.7127 22.7969H32.6029C32.6456 22.3339 32.8092 22.0362 33.2218 22.0362C33.5135 22.0362 33.6557 22.195 33.7127 22.4529C33.7375 22.5664 33.7375 22.6834 33.7127 22.7969ZM37.2171 23.0948C37.5424 22.9651 37.742 22.6519 37.7034 22.3206C37.7078 22.0669 37.5905 21.8245 37.3833 21.6592C37.1217 21.4656 36.7922 21.369 36.4584 21.3881C36.1 21.3762 35.7445 21.4514 35.4269 21.6063C35.3771 21.6063 35.242 21.7121 35.242 21.7981C35.2358 21.8176 35.2358 21.8383 35.242 21.8576L35.4838 22.2016C35.4967 22.2279 35.524 22.2457 35.555 22.2479C35.555 22.2479 35.6262 22.2479 35.7471 22.1619C35.9169 22.0665 36.1107 22.0141 36.3091 22.0098C36.4286 21.9946 36.5494 22.0279 36.6407 22.1014C36.7319 22.1748 36.7848 22.2812 36.7857 22.3934C36.7857 22.777 36.4158 22.8034 36.1668 22.8034H35.996C35.9178 22.8034 35.8964 22.8034 35.8964 22.8961V23.3392C35.8964 23.412 35.8964 23.4318 35.996 23.4318H36.1597C36.3873 23.4318 36.8711 23.4318 36.8711 23.8352C36.8711 24.0138 36.7857 24.3181 36.2949 24.3181C36.0448 24.3259 35.7977 24.2661 35.5834 24.1461C35.5237 24.1071 35.4558 24.0801 35.3843 24.0668C35.3469 24.0668 35.3132 24.0876 35.2989 24.1197L35.1424 24.4703C35.1382 24.4943 35.1382 24.5189 35.1424 24.543C35.1424 24.6422 35.2704 24.7017 35.3914 24.7547C35.6933 24.8808 36.0207 24.9462 36.3517 24.9465C37.1841 24.9465 37.7745 24.5496 37.7745 23.8485C37.8004 23.5062 37.5679 23.1941 37.2171 23.0948ZM39.8375 21.4145C39.0336 21.4145 38.2582 21.9238 38.2582 23.1937C38.2582 24.4636 39.0336 24.9729 39.8375 24.9729C40.6413 24.9729 41.4096 24.4636 41.4096 23.1937C41.4096 21.9238 40.6485 21.4145 39.8375 21.4145ZM39.2402 23.1937C39.2402 23.7096 39.2686 24.2982 39.8377 24.2982V24.285C40.4282 24.285 40.4282 23.6963 40.4282 23.1805C40.4282 22.6646 40.3926 22.0759 39.8377 22.0759C39.2829 22.0759 39.2402 22.6778 39.2402 23.1937ZM44.8885 21.5137H42.2421C42.1639 21.5137 42.1354 21.5137 42.1354 21.6063V24.7216C42.1354 24.7943 42.1354 24.8142 42.2421 24.8142H42.9535C43.046 24.8142 43.0531 24.8142 43.0531 24.7216V22.1818H44.1059V24.7216C44.1059 24.7943 44.1059 24.8142 44.2055 24.8142H44.917C45.0165 24.8142 45.0237 24.8142 45.0237 24.7216V21.5997C45.0237 21.5137 45.0237 21.5071 44.917 21.5071L44.8885 21.5137ZM48.4383 22.4595V23.7824L48.3957 23.7889C48.3844 24.0138 48.4206 24.2385 48.5024 24.4504C48.5363 24.5137 48.5626 24.5802 48.5807 24.6488C48.582 24.6824 48.5585 24.7124 48.5237 24.7216L47.9333 24.9398L47.9301 24.9411C47.8817 24.9605 47.8396 24.9772 47.7839 24.8737C47.7259 24.772 47.6851 24.6628 47.6629 24.5496C47.4416 24.8053 47.1122 24.9596 46.7595 24.9729C46.4645 24.9892 46.1764 24.8856 45.9702 24.6887C45.7639 24.492 45.66 24.2215 45.6853 23.9477C45.6667 23.6066 45.8321 23.2792 46.1263 23.0747C46.5644 22.863 47.0565 22.7669 47.5491 22.7969V22.5852C47.5643 22.4585 47.5343 22.3307 47.4638 22.2214C47.362 22.1239 47.2179 22.0752 47.0725 22.0892C46.872 22.0941 46.6732 22.1252 46.4821 22.1818C46.3684 22.2238 46.2519 22.2592 46.1335 22.2876C46.0624 22.2876 46.0624 22.2677 46.0624 22.2214L45.9129 21.7981C45.8703 21.6989 45.8703 21.6725 46.0624 21.5931C46.418 21.473 46.7938 21.4126 47.1721 21.4145C47.5875 21.345 48.0105 21.4922 48.2748 21.7981C48.3902 22.0017 48.4467 22.2296 48.4383 22.4595ZM47.5491 24.0601C47.414 24.2097 47.2183 24.3007 47.0085 24.3115C46.8777 24.3154 46.7512 24.2683 46.6593 24.1816C46.5675 24.095 46.5187 23.9766 46.5248 23.8552C46.5248 23.4054 47.0441 23.3062 47.5491 23.3127V24.0601ZM50.7505 21.4145C51.0557 21.4005 51.3591 21.467 51.6255 21.6063L51.6042 21.6262C51.7677 21.7056 51.7677 21.7717 51.7677 21.8114C51.7748 21.8307 51.7748 21.8516 51.7677 21.8709L51.4974 22.3074C51.4817 22.3145 51.4633 22.3145 51.4476 22.3074C51.4127 22.3074 51.3743 22.2814 51.3177 22.2431C51.2935 22.2267 51.2661 22.2082 51.2342 22.1884C51.0932 22.0941 50.9241 22.0432 50.7505 22.0429C50.5102 22.0292 50.2861 22.1558 50.1885 22.3604C50.0735 22.6268 50.0249 22.914 50.0462 23.2004C50.0227 23.456 50.0692 23.7132 50.1814 23.9477C50.2976 24.1441 50.5238 24.2621 50.7647 24.252C50.9256 24.2537 51.0836 24.2123 51.22 24.1329C51.2432 24.1203 51.2659 24.1067 51.2878 24.0936C51.3463 24.0586 51.3991 24.0271 51.4405 24.0271C51.4621 24.0296 51.4808 24.042 51.4903 24.0601L51.6966 24.5496C51.7007 24.5715 51.7007 24.5939 51.6966 24.6157C51.6966 24.6687 51.6255 24.7414 51.5188 24.7943C51.2625 24.9131 50.9799 24.9743 50.6935 24.9729C49.8541 24.9729 49.0645 24.6091 49.0645 23.2664C49.0645 21.9238 49.8754 21.4145 50.7505 21.4145ZM55.0898 21.4079L54.4211 21.5336C54.2853 21.5336 54.2856 21.5878 54.2859 21.6445L54.2859 21.6526V22.7373H53.2615V21.4807C53.2615 21.3814 53.2046 21.3881 53.1477 21.4013L52.5715 21.5071C52.3358 21.5509 52.336 21.571 52.3366 21.6349L52.3367 21.646V24.7216C52.3367 24.7943 52.3367 24.8142 52.4363 24.8142H53.1477C53.2402 24.8142 53.2473 24.8142 53.2473 24.7216V23.3987H54.2931V24.7216C54.2931 24.8075 54.2931 24.8142 54.3926 24.8142H55.104C55.1965 24.8142 55.2036 24.8142 55.2036 24.7216V21.4807C55.2036 21.3814 55.1467 21.3881 55.0898 21.4013V21.4079ZM55.9008 23.1805C55.9008 21.9106 56.6833 21.4013 57.4801 21.4013L57.5014 21.4145C58.3337 21.4145 59.0452 21.904 59.0452 23.1739C59.0452 24.4438 58.2769 24.9597 57.4801 24.9597C56.6833 24.9597 55.9008 24.4504 55.9008 23.1805ZM57.5015 24.2982C56.9324 24.2982 56.904 23.7096 56.904 23.1937C56.904 22.6778 56.9111 22.0759 57.5015 22.0759C58.092 22.0759 58.0991 22.6646 58.0991 23.1805C58.0991 23.6963 58.0991 24.285 57.5015 24.285V24.2982ZM61.2788 21.4145C61.5897 21.4118 61.8951 21.4896 62.161 21.6394L62.1396 21.6262C62.2961 21.7056 62.2961 21.7717 62.2961 21.8114C62.3032 21.8307 62.3032 21.8516 62.2961 21.8709L62.0258 22.3074C62.0101 22.3145 61.9917 22.3145 61.976 22.3074C61.9472 22.3074 61.9119 22.2833 61.8592 22.2473L61.8591 22.2472C61.8337 22.2299 61.8044 22.2098 61.7697 22.1884C61.6261 22.094 61.4547 22.0432 61.2788 22.0429C61.0406 22.03 60.819 22.1568 60.724 22.3604C60.6009 22.6247 60.5496 22.9132 60.5746 23.2003C60.5486 23.4568 60.5978 23.7151 60.7169 23.9477C60.8294 24.1443 61.0538 24.2627 61.2931 24.252C61.4562 24.2539 61.6166 24.2125 61.7554 24.1329C61.7804 24.1194 61.8048 24.1047 61.828 24.0907C61.8842 24.0569 61.9337 24.0271 61.9689 24.0271C61.9905 24.0296 62.0092 24.042 62.0187 24.0601L62.2321 24.5496C62.2362 24.5715 62.2362 24.5939 62.2321 24.6157C62.2321 24.6687 62.161 24.7414 62.0471 24.7943C61.7915 24.9145 61.5084 24.9758 61.2219 24.9729C60.3896 24.9729 59.5929 24.6091 59.5929 23.2664C59.5929 21.9238 60.4109 21.4145 61.2788 21.4145ZM65.4191 21.5071H62.7728C62.6946 21.5071 62.6732 21.5071 62.6732 21.5997V22.076C62.6732 22.1487 62.6732 22.1685 62.7728 22.1685H63.6051V24.7216C63.6051 24.8075 63.6051 24.8142 63.7047 24.8142H64.4161C64.5086 24.8142 64.5157 24.8142 64.5157 24.7216V22.1818H65.3196C65.3196 22.1818 65.4049 22.1818 65.4263 22.0892L65.5258 21.6394C65.5258 21.627 65.5274 21.6145 65.5288 21.6025C65.5352 21.5507 65.5404 21.5071 65.4191 21.5071ZM68.3286 21.5071L68.9048 21.4013L68.9119 21.4145C68.962 21.4145 68.985 21.4145 68.9943 21.425C69.0022 21.4339 69.0005 21.4504 68.9973 21.4807V24.7216C68.9973 24.8142 68.9902 24.8142 68.8906 24.8142H68.1791C68.0795 24.8142 68.0795 24.8075 68.0795 24.7216V23.4649C68.0795 23.4184 68.0839 23.3702 68.0896 23.3078C68.1002 23.1927 68.1152 23.0289 68.1152 22.7373C67.9755 23.009 67.8211 23.2739 67.6527 23.531L66.9413 24.7216C66.9375 24.7279 66.9341 24.7339 66.9308 24.7397C66.9032 24.7878 66.8881 24.8142 66.7991 24.8142H66.0877C65.9881 24.8142 65.9881 24.8075 65.9881 24.7216V21.646L65.988 21.6382C65.9878 21.5814 65.9875 21.5269 66.1304 21.5269L66.792 21.4013C66.856 21.3881 66.9129 21.3814 66.9129 21.4807V22.8829V23.6104C67.049 23.3297 67.201 23.056 67.3682 22.7902L68.0795 21.646C68.1649 21.5071 68.2005 21.5071 68.3286 21.5071Z" fill="white"/>
</svg>
