<svg width="40" height="40" viewBox="0 0 40 40" fill="none" xmlns="http://www.w3.org/2000/svg">
<mask id="mask0_2484_352" style="mask-type:alpha" maskUnits="userSpaceOnUse" x="0" y="0" width="40" height="40">
<rect width="40" height="40" fill="#6B6B6B"/>
</mask>
<g mask="url(#mask0_2484_352)">
</g>
<g clip-path="url(#clip0_2484_352)">
<path d="M31.917 11.8182H8.08366C7.7845 11.8182 7.54199 12.0624 7.54199 12.3637V30.9091C7.54199 31.2104 7.7845 31.4546 8.08366 31.4546H31.917C32.2161 31.4546 32.4587 31.2104 32.4587 30.9091V12.3637C32.4587 12.0624 32.2161 11.8182 31.917 11.8182Z" stroke="white"/>
<path d="M22.167 19.4546H17.8337C17.5345 19.4546 17.292 19.6988 17.292 20V22.1819C17.292 22.4831 17.5345 22.7273 17.8337 22.7273H22.167C22.4661 22.7273 22.7087 22.4831 22.7087 22.1819V20C22.7087 19.6988 22.4661 19.4546 22.167 19.4546Z" stroke="white"/>
<path d="M8.08398 12.3636L10.8068 19.6751C11.1239 20.5268 11.9323 21.0909 12.8355 21.0909H16.7507" stroke="white"/>
<path d="M31.9167 12.3636L29.1939 19.6751C28.8767 20.5268 28.0683 21.0909 27.1652 21.0909H23.25" stroke="white"/>
<path d="M16.75 11.2728V10.1819C16.75 9.57936 17.235 9.09094 17.8333 9.09094H23.25C23.8483 9.09094 24.3333 9.57936 24.3333 10.1819V11.2728" stroke="white"/>
</g>
<defs>
<clipPath id="clip0_2484_352">
<rect width="26" height="24" fill="white" transform="translate(7 8)"/>
</clipPath>
</defs>
</svg>
