<svg width="40" height="40" viewBox="0 0 40 40" fill="none" xmlns="http://www.w3.org/2000/svg">
<mask id="mask0_2492_382" style="mask-type:alpha" maskUnits="userSpaceOnUse" x="0" y="0" width="40" height="40">
<rect width="40" height="40" fill="#6B6B6B"/>
</mask>
<g mask="url(#mask0_2492_382)">
</g>
<g clip-path="url(#clip0_2492_382)">
<path d="M20 34C27.7196 34 34 27.7196 34 20C34 12.2804 27.7196 6 20 6C12.2804 6 6 12.2804 6 20C6 27.7196 12.2804 34 20 34ZM20 7.24841C27.0313 7.24841 32.7516 12.9686 32.7516 20C32.7516 27.0313 27.0313 32.7516 20 32.7516C12.9686 32.7516 7.24841 27.0313 7.24841 20C7.24841 12.9686 12.9686 7.24841 20 7.24841Z" fill="white"/>
<path d="M16.5498 18.742C17.9776 18.742 19.1347 17.5845 19.1347 16.1571C19.1351 14.7293 17.9776 13.5718 16.5498 13.5718C15.122 13.5718 13.9648 14.7293 13.9648 16.1567C13.9662 17.5838 15.1227 18.7403 16.5498 18.742ZM16.5498 14.8202C17.2879 14.8202 17.8863 15.4186 17.8863 16.1567C17.8867 16.8952 17.2883 17.4936 16.5498 17.4936C15.8117 17.4936 15.2132 16.8952 15.2132 16.1567C15.2139 15.419 15.812 14.8212 16.5498 14.8202Z" fill="white"/>
<path d="M20.709 24.0003C20.709 25.4281 21.8665 26.5853 23.2939 26.5853C24.7217 26.5853 25.8792 25.4281 25.8792 24.0003C25.8792 22.5725 24.7217 21.415 23.2939 21.415C21.8668 21.4168 20.7107 22.5732 20.709 24.0003ZM24.6308 24.0003C24.6308 24.7384 24.0324 25.3369 23.2939 25.3369C22.5558 25.3369 21.9574 24.7384 21.9574 24.0003C21.9574 23.2622 22.5558 22.6638 23.2939 22.6634C24.032 22.6645 24.6298 23.2622 24.6308 24.0003Z" fill="white"/>
<path d="M15.2472 27.2874C15.536 27.4759 15.923 27.3943 16.1111 27.1056L24.9349 13.5758C25.0572 13.3888 25.0704 13.1509 24.9697 12.9516C24.8687 12.7524 24.6691 12.6221 24.4462 12.6103C24.2233 12.5984 24.0108 12.7064 23.8892 12.8938L15.0654 26.4236C14.8769 26.7127 14.9584 27.0993 15.2472 27.2874Z" fill="white"/>
</g>
<defs>
<clipPath id="clip0_2492_382">
<rect width="28" height="28" fill="white" transform="translate(6 6)"/>
</clipPath>
</defs>
</svg>
