<svg width="100" height="100" viewBox="0 0 100 100" fill="none" xmlns="http://www.w3.org/2000/svg">
<mask id="mask0_151_294" style="mask-type:alpha" maskUnits="userSpaceOnUse" x="0" y="0" width="100" height="100">
<rect width="100" height="100" fill="#D9D9D9"/>
</mask>
<g mask="url(#mask0_151_294)">
<path d="M8.7258 46.4941H5.49574C3.5651 46.4941 2 48.0592 2 49.9899V70.9084C2 72.8391 3.5651 74.4041 5.49574 74.4041H8.7258C10.6564 74.4041 12.2215 72.8391 12.2215 70.9084V49.9899C12.2215 48.0592 10.6564 46.4941 8.7258 46.4941Z" stroke="#706F6F" stroke-width="3" stroke-linecap="round" stroke-linejoin="round"/>
<path d="M94.5041 46.4941H91.2741C89.3434 46.4941 87.7783 48.0592 87.7783 49.9899V70.9084C87.7783 72.8391 89.3434 74.4041 91.2741 74.4041H94.5041C96.4348 74.4041 97.9999 72.8391 97.9999 70.9084V49.9899C97.9999 48.0592 96.4348 46.4941 94.5041 46.4941Z" stroke="#706F6F" stroke-width="3" stroke-linecap="round" stroke-linejoin="round"/>
<path d="M12.2217 49.9899H26.8828C26.8828 49.9899 35.8878 48.0813 38.188 46.4942C40.4812 44.9071 43.8372 43.1383 48.2558 45.4315" stroke="#706F6F" stroke-width="3" stroke-linecap="round" stroke-linejoin="round"/>
<path d="M12.2217 70.9085C12.2217 70.9085 18.7587 70.5169 23.3521 74.4042" stroke="#706F6F" stroke-width="3" stroke-linecap="round" stroke-linejoin="round"/>
<path d="M23.3241 80.228C21.8558 78.7598 21.8558 76.3687 23.3241 74.9005L27.9245 70.3001C29.3927 68.8319 31.7838 68.8319 33.252 70.3001C34.7202 71.7683 34.7202 74.1594 33.252 75.6276L28.6516 80.228C27.1833 81.6962 24.7923 81.6962 23.3241 80.228Z" stroke="#706F6F" stroke-width="3" stroke-linecap="round" stroke-linejoin="round"/>
<path d="M41.5788 95.4625C40.1106 93.9943 40.1106 91.5822 41.5788 90.114L45.2843 86.4085C46.7525 84.9403 49.1646 84.9403 50.6328 86.4085C52.101 87.8767 52.101 90.2888 50.6328 91.757L46.9273 95.4625C45.4591 96.9307 43.047 96.9307 41.5788 95.4625Z" stroke="#706F6F" stroke-width="3" stroke-linecap="round" stroke-linejoin="round"/>
<path d="M34.9577 90.8761C33.4895 89.4079 33.4895 87.0168 34.9577 85.5486L40.9844 79.5219C42.4526 78.0537 44.8437 78.0537 46.3119 79.5219C47.7801 80.9901 47.7801 83.3812 46.3119 84.8494L40.2852 90.8761C38.817 92.3443 36.4259 92.3443 34.9577 90.8761Z" stroke="#706F6F" stroke-width="3" stroke-linecap="round" stroke-linejoin="round"/>
<path d="M28.9802 85.8772C27.512 84.409 27.512 82.0179 28.9802 80.5497L35.72 73.8099C37.1882 72.3417 39.5793 72.3417 41.0475 73.8099C42.5157 75.2781 42.5157 77.6692 41.0475 79.1374L34.3077 85.8772C32.8395 87.3454 30.4484 87.3454 28.9802 85.8772Z" stroke="#706F6F" stroke-width="3" stroke-linecap="round" stroke-linejoin="round"/>
<path d="M87.7785 49.9899H71.2227C68.482 49.9899 58.5052 45.1798 54.9745 44.3338C51.4438 43.4879 48.6192 45.1658 42.5226 50.731C36.4261 56.2962 35.9856 59.2956 37.7545 61.5049C39.5233 63.7142 43.4036 63.092 47.1161 58.8552C50.8285 54.6183 53.4713 53.6465 53.4713 53.6465C62.5672 57.8833 77.3192 72.0131 77.3192 72.0131C77.6129 72.3067 77.9765 72.6773 78.326 73.1177C79.3957 74.4741 80.2976 76.4317 78.291 78.3683C75.6413 80.9272 72.9915 78.3683 72.9915 78.3683C72.9915 78.3683 75.3756 80.6616 72.9915 83.6679C70.6074 86.6742 67.6011 84.1993 67.6011 84.1993C67.6011 84.1993 70.3418 86.849 67.6011 89.9392C64.8605 93.0295 61.8611 89.9392 61.8611 89.9392C61.8611 89.9392 63.9795 92.4981 61.8821 94.6095C59.7217 96.7769 56.3868 95.064 56.3868 95.064L50.9824 91.3445" stroke="#706F6F" stroke-width="3" stroke-linecap="round" stroke-linejoin="round"/>
<path d="M87.7786 71.314H81.4653C81.4653 71.314 79.6754 71.6705 78.3191 73.1248" stroke="#706F6F" stroke-width="3" stroke-linecap="round" stroke-linejoin="round"/>
<path d="M39.6283 45.5433C32.8046 41.7679 28.1832 34.4968 28.1832 26.149C28.1832 13.9139 38.0971 4 50.3322 4C62.5673 4 72.4812 13.9139 72.4812 26.149C72.4812 34.7485 67.5802 42.2014 60.4279 45.872" stroke="#706F6F" stroke-width="3" stroke-linecap="round" stroke-linejoin="round"/>
<path d="M37.6498 25.317L46.494 34.1612L62.3157 18.3325" stroke="#706F6F" stroke-width="3" stroke-linecap="round" stroke-linejoin="round"/>
</g>
</svg>
