<svg width="69" height="25" viewBox="0 0 69 25" fill="none" xmlns="http://www.w3.org/2000/svg">
<path fill-rule="evenodd" clip-rule="evenodd" d="M12.1566 2.55784C11.4989 1.76616 10.6659 1.13826 9.72352 0.723702C8.5707 0.224649 7.32297 -0.0179254 6.06696 0.0128064H1.47842C1.04947 -0.0442364 0.617217 0.0910975 0.297499 0.382515C0.0761073 0.723844 -0.0264152 1.12863 0.00582512 1.53414V15.7376C-0.0264714 16.1386 0.0761834 16.5389 0.297499 16.8751C0.622899 17.1555 1.05216 17.2847 1.47842 17.2305H6.3444C7.59005 17.2747 8.8291 17.0315 9.96543 16.5196C10.8911 16.081 11.6949 15.422 12.3059 14.6002C12.9091 13.7717 13.3353 12.828 13.558 11.8278C13.8086 10.7583 13.9327 9.66315 13.9279 8.5648C13.9314 7.46116 13.7903 6.36181 13.5082 5.29475C13.2559 4.30734 12.7977 3.38439 12.1637 2.58622L12.1566 2.55784ZM9.90152 10.7117C9.78565 11.3237 9.54338 11.9047 9.19008 12.4178C8.85114 12.9017 8.38957 13.2869 7.85271 13.5339C7.1803 13.8258 6.45118 13.9643 5.71848 13.9391H3.72656V3.27587H5.63311C6.36543 3.25554 7.0935 3.39373 7.76734 3.68101C8.33156 3.92152 8.82242 4.30648 9.19008 4.79712C9.5426 5.29233 9.78515 5.85705 9.90152 6.4535C10.0401 7.14137 10.1069 7.84178 10.1007 8.54348C10.1071 9.27106 10.0404 9.99743 9.90152 10.7117ZM43.2377 14.0884C43.13 14.0196 43.002 13.9895 42.8749 14.0031H36.6075C36.1888 14.0223 35.7743 13.9131 35.4194 13.6903C35.0696 13.3744 34.899 12.9058 34.9642 12.4391V0.531824C34.9858 0.382301 34.9445 0.230496 34.8503 0.112417C34.7065 0.0284218 34.5391 -0.00644554 34.3737 0.0128777H31.7842C31.6307 -0.000883871 31.4772 0.0393313 31.3502 0.126607C31.2482 0.235558 31.1989 0.383513 31.2151 0.531824V12.7093C31.2173 13.2626 31.2841 13.8137 31.4143 14.3514C31.6732 15.464 32.4513 16.3844 33.5058 16.8253C34.2171 17.1109 34.9806 17.2441 35.7467 17.2163H42.8607C43.1666 17.2163 43.3231 17.0457 43.3231 16.7044V14.5221C43.3231 14.2946 43.3231 14.1453 43.2235 14.0884H43.2377ZM54.8975 2.71428V0.546085C54.914 0.401196 54.8786 0.255167 54.7979 0.133808C54.6843 0.0533067 54.5449 0.0178689 54.4066 0.0342687H41.8362C41.7049 0.0218619 41.5735 0.0572284 41.4662 0.133808C41.3885 0.256379 41.3558 0.402123 41.3737 0.546085V2.7356C41.3737 3.06267 41.5232 3.22617 41.8362 3.22617H46.1828V16.733C46.1678 16.879 46.2171 17.0243 46.3179 17.131C46.445 17.2183 46.5985 17.2585 46.7519 17.2448H49.3628C49.5282 17.2642 49.6955 17.2292 49.8394 17.1453C49.9325 17.0294 49.9737 16.8802 49.9532 16.733V3.22617H54.3924C54.5275 3.24542 54.664 3.19993 54.7605 3.10345C54.857 3.00698 54.9025 2.87072 54.8833 2.7356L54.8975 2.71428ZM68.9476 16.7259L63.8754 1.36365C63.7989 1.11651 63.6964 0.878216 63.5694 0.652755C63.3877 0.316773 63.0529 0.0910262 62.6731 0.0484581C62.4361 0.0358374 62.1986 0.0358374 61.9617 0.0484581H60.4891C60.2693 0.0458199 60.0497 0.0672822 59.8346 0.112489C59.66 0.144219 59.4947 0.214666 59.3509 0.318627C59.2014 0.427293 59.0755 0.565123 58.9809 0.723844C58.8553 0.947309 58.7596 1.18632 58.6964 1.43474L53.5957 16.7259C53.5593 16.8367 53.5593 16.9563 53.5957 17.0671C53.5957 17.1666 53.745 17.2164 53.9229 17.2164H56.7685C56.9358 17.2361 57.1047 17.1958 57.2451 17.1027C57.3474 17.0071 57.4192 16.8834 57.4514 16.7472L58.4545 13.6051H64.0675L65.0279 16.8041C65.0494 16.9507 65.1468 17.0749 65.2839 17.131C65.4312 17.1769 65.585 17.1986 65.7392 17.1951H68.6559C68.8362 17.1951 68.9429 17.1382 68.9761 17.0244C69.008 16.9202 69.008 16.8088 68.9761 16.7046L68.9476 16.7259ZM59.3367 10.5979L60.2686 7.48426L61.2005 3.97963H61.3499L62.2534 7.48426L63.1853 10.5979H59.3367ZM28.0848 13.9819H20.0104V9.71649H27.0533C27.2453 9.71649 27.3734 9.67385 27.4303 9.58144C27.4978 9.44996 27.5274 9.30229 27.5157 9.1549V7.24262C27.5307 7.08368 27.5011 6.92368 27.4303 6.78057C27.3734 6.69522 27.2453 6.65258 27.0533 6.65258H20.0104V3.24749H27.8358C27.9697 3.26446 28.1045 3.22303 28.2057 3.13369C28.2859 3.00677 28.321 2.85653 28.3053 2.70722V0.624305C28.3191 0.463088 28.2897 0.301157 28.22 0.155128C28.1171 0.058298 27.9756 0.0138046 27.8358 0.0342687H16.7593C16.6279 0.0197941 16.4958 0.0553745 16.3894 0.133808C16.3086 0.255167 16.2733 0.401196 16.2898 0.546085V16.7045C16.2717 16.8509 16.3215 16.9975 16.4249 17.1026C16.5493 17.1899 16.7005 17.2302 16.8518 17.2164H28.0848C28.2293 17.2366 28.3749 17.1864 28.4761 17.0813C28.548 16.9512 28.5801 16.8029 28.5686 16.6547V14.5719C28.5867 14.4082 28.5571 14.2428 28.4832 14.0956C28.4262 14.0174 28.2911 13.9819 28.0848 13.9819Z" fill="#6D6E71"/>
<path fill-rule="evenodd" clip-rule="evenodd" d="M28.6759 21.8392C28.8746 21.4692 29.2918 21.2453 29.7358 21.2704L29.7714 21.3431C30.6179 21.3431 31.1942 21.978 31.1942 23.0363C31.1942 24.2136 30.4259 24.7493 29.6149 24.7493C29.027 24.7664 28.4855 24.4535 28.2419 23.9556C28.0595 23.5178 27.9794 23.0488 28.0072 22.5799C27.9835 22.1332 28.0412 21.686 28.1779 21.2571C28.3701 20.761 28.7669 20.3564 29.2805 20.1327L30.6464 19.5639C30.6891 19.511 30.8242 19.4515 30.8741 19.5639L31.123 20.06C31.1372 20.0864 31.1657 20.1724 31.0234 20.2319L29.5153 20.8272C29.0593 20.9914 28.737 21.3749 28.6759 21.8259V21.8392ZM6.18192 21.1645L5.59858 21.2704C5.47764 21.2704 5.44208 21.2704 5.3496 21.4092L4.63821 22.5534L4.62232 22.5799H4.62232H4.62231H4.6223C4.4934 22.7943 4.37427 22.9924 4.18293 23.3736C4.18293 23.294 4.19117 23.1669 4.19972 23.035C4.20893 22.893 4.21849 22.7455 4.21849 22.6461V21.2307C4.21849 21.1314 4.16158 21.1381 4.10467 21.1513L3.43597 21.2769C3.29309 21.2769 3.29337 21.3314 3.29366 21.3882L3.29369 21.396V24.4716C3.29369 24.5575 3.29369 24.5642 3.4004 24.5642H4.11178C4.1938 24.5642 4.20867 24.5382 4.23579 24.4907C4.23925 24.4847 4.24292 24.4783 4.24695 24.4716L4.95833 23.281C5.11506 23.0245 5.25521 22.7594 5.37805 22.4873V23.2149V24.4716C5.37805 24.5575 5.37805 24.5642 5.48476 24.5642H6.19615C6.28863 24.5642 6.29574 24.5642 6.29574 24.4716V21.2307C6.29574 21.1314 6.23883 21.1381 6.18192 21.1513V21.1645ZM2.56099 21.3696C2.29606 21.2256 1.99264 21.1545 1.68599 21.1645C0.810977 21.1645 0 21.654 0 22.9966C0 24.3393 0.789637 24.7031 1.62908 24.7031C1.91539 24.7044 2.19805 24.6433 2.45429 24.5245C2.56099 24.4716 2.63924 24.3989 2.63924 24.3459C2.64323 24.324 2.64323 24.3017 2.63924 24.2798L2.42583 23.8101C2.40991 23.8039 2.39195 23.8039 2.37603 23.8101C2.29642 23.8332 2.22177 23.869 2.1555 23.916C2.01915 23.9954 1.86111 24.0368 1.70021 24.035C1.45971 24.0437 1.23436 23.9261 1.11687 23.7308C1.00473 23.4963 0.958232 23.2391 0.981712 22.9834C0.960457 22.697 1.00909 22.4099 1.12399 22.1434C1.2232 21.9401 1.44624 21.8141 1.68599 21.826C1.85961 21.8264 2.02875 21.8772 2.16973 21.9714C2.21032 21.9951 2.24367 22.017 2.27172 22.0354V22.0354C2.32233 22.0686 2.35568 22.0905 2.38314 22.0905C2.39886 22.0976 2.41722 22.0976 2.43294 22.0905L2.70326 21.654C2.71032 21.6347 2.71032 21.6137 2.70326 21.5944C2.70326 21.5548 2.70326 21.4886 2.53965 21.4093L2.56099 21.3696ZM8.67185 21.1645C8.98065 21.1558 9.28596 21.2268 9.55396 21.3696L9.53263 21.3762C9.68916 21.4556 9.68916 21.5217 9.68916 21.5614C9.6962 21.5807 9.6962 21.6016 9.68916 21.6209L9.41882 22.0574C9.4034 22.0657 9.38442 22.0657 9.36899 22.0574C9.3402 22.0574 9.30487 22.0333 9.2522 21.9973V21.9973V21.9973C9.22682 21.98 9.19739 21.9599 9.1627 21.9384C9.0191 21.8441 8.84772 21.7932 8.67185 21.7929C8.43414 21.782 8.21363 21.9082 8.11695 22.1104C7.99795 22.3759 7.94677 22.6634 7.9676 22.9504C7.94535 23.2067 7.9944 23.464 8.10984 23.6978C8.22493 23.8919 8.44772 24.0096 8.68607 24.002C8.84921 24.0039 9.00958 23.9625 9.14848 23.8829C9.17343 23.8694 9.19781 23.8547 9.22099 23.8407V23.8407C9.27715 23.8069 9.32669 23.7771 9.36188 23.7771C9.38562 23.7786 9.40695 23.791 9.41882 23.8101L9.62511 24.2996C9.62924 24.3215 9.62924 24.3439 9.62511 24.3657C9.62511 24.4187 9.55396 24.4914 9.44726 24.5443C9.18879 24.6639 8.90366 24.7251 8.61491 24.7229C7.78264 24.7229 6.99298 24.3591 6.99298 23.0165C6.99298 21.6738 7.80396 21.1645 8.67185 21.1645ZM12.8049 21.2571H10.1728C10.0874 21.2571 10.0661 21.2571 10.0661 21.3497V21.826C10.0661 21.8987 10.0661 21.9185 10.1728 21.9185H10.998V24.4716C10.998 24.5575 10.998 24.5642 11.0976 24.5642H11.8089C11.9014 24.5642 11.9156 24.5642 11.9156 24.4716V21.9318H12.7124C12.748 21.9318 12.7978 21.9318 12.8191 21.8392L12.9258 21.3894C12.9258 21.3774 12.9273 21.3653 12.9286 21.3536C12.9347 21.3013 12.94 21.2571 12.812 21.2571H12.8049ZM13.1252 23.0297C13.1252 21.9648 13.6943 21.1645 14.7115 21.1645C15.4214 21.1104 16.0487 21.5911 16.1272 22.2492C16.1827 22.4815 16.209 22.719 16.2055 22.9569C16.2055 23.1752 16.1343 23.1752 16.0418 23.1752H14.0855C14.0855 23.6647 14.2847 24.0152 14.8823 24.0152C15.1282 24.0112 15.3705 23.9593 15.5936 23.8631C15.6526 23.8298 15.7177 23.8074 15.7857 23.7969C15.8218 23.7957 15.8542 23.8175 15.864 23.8498L16.0489 24.2467C16.0541 24.2662 16.0541 24.2867 16.0489 24.3062C16.0489 24.3724 15.992 24.4186 15.928 24.4584C15.5756 24.6394 15.1781 24.7307 14.7756 24.7229C14.3006 24.7433 13.8406 24.5654 13.5213 24.2378C13.202 23.9103 13.0567 23.4672 13.1252 23.0297ZM15.1883 22.5469H14.043C14.0856 22.0839 14.2493 21.7862 14.6618 21.7862C14.9535 21.7862 15.0958 21.945 15.1527 22.2029C15.1796 22.3158 15.1915 22.4313 15.1883 22.5469ZM20.1185 21.2764C20.1731 21.2742 20.239 21.2715 20.239 21.3762L20.4168 24.4716L20.417 24.4859C20.418 24.5374 20.4187 24.5708 20.2817 24.5708H19.7837H19.773C19.712 24.5712 19.6485 24.5715 19.6485 24.4716L19.5418 22.3154C19.4707 22.5535 19.3782 22.8445 19.2928 23.0827L18.9015 24.0945C18.866 24.174 18.8162 24.174 18.7593 24.174H18.3609L18.3509 24.1741L18.342 24.1743H18.3419C18.2929 24.1756 18.2502 24.1767 18.2186 24.0945L17.8274 23.0827C17.742 22.8445 17.6495 22.5535 17.5784 22.3154L17.5144 24.4716C17.5144 24.5708 17.4432 24.5708 17.3792 24.5708H16.8812C16.7461 24.5708 16.7461 24.5311 16.7461 24.4716L16.931 21.3762C16.9382 21.277 17.0235 21.277 17.0733 21.277H17.6851L17.6944 21.2769C17.7414 21.2765 17.8345 21.2756 17.8345 21.3497L18.3894 22.785C18.4739 23.0184 18.5404 23.2571 18.5886 23.4993C18.6341 23.2572 18.6982 23.0185 18.7806 22.785L19.3426 21.3497C19.3711 21.277 19.4422 21.277 19.492 21.277H20.0967C20.1036 21.277 20.1109 21.2767 20.1185 21.2764ZM25.3319 21.1645L24.6637 21.2902C24.528 21.2902 24.5283 21.3444 24.5286 21.4011V21.4092V24.4716C24.5286 24.5575 24.5286 24.5642 24.6282 24.5642H25.339C25.3889 24.5642 25.4137 24.5642 25.4262 24.5526C25.4385 24.541 25.4385 24.5178 25.4385 24.4716V21.2307C25.4385 21.1314 25.3817 21.1381 25.3248 21.1513L25.3319 21.1645ZM22.5295 22.4146C22.9318 22.3721 23.337 22.4686 23.6677 22.6857V22.6593C23.9125 22.8581 24.0439 23.1514 24.0234 23.453C24.0462 23.7739 23.9036 24.0857 23.6392 24.293C23.2803 24.5071 22.8544 24.6025 22.4299 24.5642H21.3059C21.1992 24.5642 21.1992 24.5575 21.1992 24.4716V21.396V21.3889V21.3889C21.1991 21.3617 21.1991 21.3437 21.2074 21.3301C21.2236 21.3035 21.2721 21.2938 21.4156 21.265L21.4553 21.2571L22.0102 21.1513C22.0671 21.1381 22.124 21.1314 22.124 21.2307V22.4146H22.5295ZM22.487 23.8896H22.1242V23.0959H22.5652C22.7218 23.0959 23.1059 23.0959 23.1059 23.5059C23.1059 23.916 22.7573 23.916 22.487 23.916V23.8896ZM29.622 24.0747C29.06 24.0747 29.0244 23.4662 29.0244 23.0363C29.0244 22.6064 29.0244 22.0177 29.622 22.0177C30.2196 22.0177 30.2196 22.6197 30.2196 23.0363C30.2196 23.453 30.2196 24.0747 29.622 24.0747ZM31.6851 23.0297C31.6851 21.9648 32.2542 21.1645 33.2715 21.1645C33.9787 21.1141 34.6016 21.5938 34.6801 22.2492C34.7355 22.4815 34.7618 22.719 34.7583 22.9569C34.7583 23.1752 34.6872 23.1752 34.5947 23.1752H32.6383C32.6383 23.6647 32.8375 24.0152 33.4423 24.0152C33.6882 24.0114 33.9305 23.9595 34.1536 23.8631C34.2125 23.8298 34.2777 23.8074 34.3457 23.7969C34.3818 23.7957 34.4141 23.8175 34.424 23.8498L34.6089 24.2467C34.614 24.2662 34.614 24.2867 34.6089 24.3062C34.5992 24.3709 34.5569 24.4274 34.4951 24.4584C34.1395 24.6379 33.7401 24.7291 33.3356 24.7229C32.8606 24.7433 32.4006 24.5654 32.0812 24.2378C31.7619 23.9103 31.6167 23.4672 31.6851 23.0297ZM33.7127 22.5469H32.6029C32.6456 22.0839 32.8092 21.7862 33.2218 21.7862C33.5135 21.7862 33.6557 21.945 33.7127 22.2029C33.7375 22.3164 33.7375 22.4334 33.7127 22.5469ZM37.2171 22.8448C37.5424 22.7151 37.742 22.4019 37.7034 22.0706C37.7078 21.8169 37.5905 21.5745 37.3833 21.4092C37.1217 21.2156 36.7922 21.119 36.4584 21.1381C36.1 21.1262 35.7445 21.2014 35.4269 21.3563C35.3771 21.3563 35.242 21.4621 35.242 21.5481C35.2358 21.5676 35.2358 21.5883 35.242 21.6076L35.4838 21.9516C35.4967 21.9779 35.524 21.9957 35.555 21.9979C35.555 21.9979 35.6262 21.9979 35.7471 21.9119C35.9169 21.8165 36.1107 21.7641 36.3091 21.7598C36.4286 21.7446 36.5494 21.7779 36.6407 21.8514C36.7319 21.9248 36.7848 22.0312 36.7857 22.1434C36.7857 22.527 36.4158 22.5534 36.1668 22.5534H35.996C35.9178 22.5534 35.8964 22.5534 35.8964 22.6461V23.0892C35.8964 23.162 35.8964 23.1818 35.996 23.1818H36.1597C36.3873 23.1818 36.8711 23.1818 36.8711 23.5852C36.8711 23.7638 36.7857 24.0681 36.2949 24.0681C36.0448 24.0759 35.7977 24.0161 35.5834 23.8961C35.5237 23.8571 35.4558 23.8301 35.3843 23.8168C35.3469 23.8168 35.3132 23.8376 35.2989 23.8697L35.1424 24.2203C35.1382 24.2443 35.1382 24.2689 35.1424 24.293C35.1424 24.3922 35.2704 24.4517 35.3914 24.5047C35.6933 24.6308 36.0207 24.6962 36.3517 24.6965C37.1841 24.6965 37.7745 24.2996 37.7745 23.5985C37.8004 23.2562 37.5679 22.9441 37.2171 22.8448ZM39.8375 21.1645C39.0336 21.1645 38.2582 21.6738 38.2582 22.9437C38.2582 24.2136 39.0336 24.7229 39.8375 24.7229C40.6413 24.7229 41.4096 24.2136 41.4096 22.9437C41.4096 21.6738 40.6485 21.1645 39.8375 21.1645ZM39.2402 22.9437C39.2402 23.4596 39.2686 24.0482 39.8377 24.0482V24.035C40.4282 24.035 40.4282 23.4463 40.4282 22.9305C40.4282 22.4146 40.3926 21.8259 39.8377 21.8259C39.2829 21.8259 39.2402 22.4278 39.2402 22.9437ZM44.8885 21.2637H42.2421C42.1639 21.2637 42.1354 21.2637 42.1354 21.3563V24.4716C42.1354 24.5443 42.1354 24.5642 42.2421 24.5642H42.9535C43.046 24.5642 43.0531 24.5642 43.0531 24.4716V21.9318H44.1059V24.4716C44.1059 24.5443 44.1059 24.5642 44.2055 24.5642H44.917C45.0165 24.5642 45.0237 24.5642 45.0237 24.4716V21.3497C45.0237 21.2637 45.0237 21.2571 44.917 21.2571L44.8885 21.2637ZM48.4383 22.2095V23.5324L48.3957 23.5389C48.3844 23.7638 48.4206 23.9885 48.5024 24.2004C48.5363 24.2637 48.5626 24.3302 48.5807 24.3988C48.582 24.4324 48.5585 24.4624 48.5237 24.4716L47.9333 24.6898L47.9301 24.6911C47.8817 24.7105 47.8396 24.7272 47.7839 24.6237C47.7259 24.522 47.6851 24.4128 47.6629 24.2996C47.4416 24.5553 47.1122 24.7096 46.7595 24.7229C46.4645 24.7392 46.1764 24.6356 45.9702 24.4387C45.7639 24.242 45.66 23.9715 45.6853 23.6977C45.6667 23.3566 45.8321 23.0292 46.1263 22.8247C46.5644 22.613 47.0565 22.5169 47.5491 22.5469V22.3352C47.5643 22.2085 47.5343 22.0807 47.4638 21.9714C47.362 21.8739 47.2179 21.8252 47.0725 21.8392C46.872 21.8441 46.6732 21.8752 46.4821 21.9318C46.3684 21.9738 46.2519 22.0092 46.1335 22.0376C46.0624 22.0376 46.0624 22.0177 46.0624 21.9714L45.9129 21.5481C45.8703 21.4489 45.8703 21.4225 46.0624 21.3431C46.418 21.2231 46.7938 21.1626 47.1721 21.1645C47.5875 21.095 48.0105 21.2422 48.2748 21.5481C48.3902 21.7517 48.4467 21.9796 48.4383 22.2095ZM47.5491 23.8101C47.414 23.9597 47.2183 24.0507 47.0085 24.0615C46.8777 24.0654 46.7512 24.0183 46.6593 23.9316C46.5675 23.845 46.5187 23.7266 46.5248 23.6052C46.5248 23.1554 47.0441 23.0562 47.5491 23.0627V23.8101ZM50.7505 21.1645C51.0557 21.1505 51.3591 21.217 51.6255 21.3563L51.6042 21.3762C51.7677 21.4556 51.7677 21.5217 51.7677 21.5614C51.7748 21.5807 51.7748 21.6016 51.7677 21.6209L51.4974 22.0574C51.4817 22.0645 51.4633 22.0645 51.4476 22.0574C51.4127 22.0574 51.3743 22.0314 51.3177 21.9931C51.2935 21.9767 51.2661 21.9582 51.2342 21.9384C51.0932 21.8441 50.9241 21.7932 50.7505 21.7929C50.5102 21.7792 50.2861 21.9058 50.1885 22.1104C50.0735 22.3768 50.0249 22.664 50.0462 22.9504C50.0227 23.206 50.0692 23.4632 50.1814 23.6977C50.2976 23.8941 50.5238 24.0121 50.7647 24.002C50.9256 24.0037 51.0836 23.9623 51.22 23.8829C51.2432 23.8703 51.2659 23.8567 51.2878 23.8436C51.3463 23.8086 51.3991 23.7771 51.4405 23.7771C51.4621 23.7796 51.4808 23.792 51.4903 23.8101L51.6966 24.2996C51.7007 24.3215 51.7007 24.3439 51.6966 24.3657C51.6966 24.4187 51.6255 24.4914 51.5188 24.5443C51.2625 24.6631 50.9799 24.7243 50.6935 24.7229C49.8541 24.7229 49.0645 24.3591 49.0645 23.0164C49.0645 21.6738 49.8754 21.1645 50.7505 21.1645ZM55.0898 21.1579L54.4211 21.2836C54.2853 21.2836 54.2856 21.3378 54.2859 21.3945L54.2859 21.4026V22.4873H53.2615V21.2307C53.2615 21.1314 53.2046 21.1381 53.1477 21.1513L52.5715 21.2571C52.3358 21.3009 52.336 21.321 52.3366 21.3849L52.3367 21.396V24.4716C52.3367 24.5443 52.3367 24.5642 52.4363 24.5642H53.1477C53.2402 24.5642 53.2473 24.5642 53.2473 24.4716V23.1487H54.2931V24.4716C54.2931 24.5575 54.2931 24.5642 54.3926 24.5642H55.104C55.1965 24.5642 55.2036 24.5642 55.2036 24.4716V21.2307C55.2036 21.1314 55.1467 21.1381 55.0898 21.1513V21.1579ZM55.9008 22.9305C55.9008 21.6606 56.6833 21.1513 57.4801 21.1513L57.5014 21.1645C58.3337 21.1645 59.0452 21.654 59.0452 22.9239C59.0452 24.1938 58.2769 24.7097 57.4801 24.7097C56.6833 24.7097 55.9008 24.2004 55.9008 22.9305ZM57.5015 24.0482C56.9324 24.0482 56.904 23.4596 56.904 22.9437C56.904 22.4278 56.9111 21.8259 57.5015 21.8259C58.092 21.8259 58.0991 22.4146 58.0991 22.9305C58.0991 23.4463 58.0991 24.035 57.5015 24.035V24.0482ZM61.2788 21.1645C61.5897 21.1618 61.8951 21.2396 62.161 21.3894L62.1396 21.3762C62.2961 21.4556 62.2961 21.5217 62.2961 21.5614C62.3032 21.5807 62.3032 21.6016 62.2961 21.6209L62.0258 22.0574C62.0101 22.0645 61.9917 22.0645 61.976 22.0574C61.9472 22.0574 61.9119 22.0333 61.8592 21.9973L61.8591 21.9972C61.8337 21.9799 61.8044 21.9598 61.7697 21.9384C61.6261 21.844 61.4547 21.7932 61.2788 21.7929C61.0406 21.78 60.819 21.9068 60.724 22.1104C60.6009 22.3747 60.5496 22.6632 60.5746 22.9503C60.5486 23.2068 60.5978 23.4651 60.7169 23.6977C60.8294 23.8943 61.0538 24.0127 61.2931 24.002C61.4562 24.0039 61.6166 23.9625 61.7554 23.8829C61.7804 23.8694 61.8048 23.8547 61.828 23.8407C61.8842 23.8069 61.9337 23.7771 61.9689 23.7771C61.9905 23.7796 62.0092 23.792 62.0187 23.8101L62.2321 24.2996C62.2362 24.3215 62.2362 24.3439 62.2321 24.3657C62.2321 24.4187 62.161 24.4914 62.0471 24.5443C61.7915 24.6645 61.5084 24.7258 61.2219 24.7229C60.3896 24.7229 59.5929 24.3591 59.5929 23.0164C59.5929 21.6738 60.4109 21.1645 61.2788 21.1645ZM65.4191 21.2571H62.7728C62.6946 21.2571 62.6732 21.2571 62.6732 21.3497V21.826C62.6732 21.8987 62.6732 21.9185 62.7728 21.9185H63.6051V24.4716C63.6051 24.5575 63.6051 24.5642 63.7047 24.5642H64.4161C64.5086 24.5642 64.5157 24.5642 64.5157 24.4716V21.9318H65.3196C65.3196 21.9318 65.4049 21.9318 65.4263 21.8392L65.5258 21.3894C65.5258 21.377 65.5274 21.3645 65.5288 21.3525C65.5352 21.3007 65.5404 21.2571 65.4191 21.2571ZM68.3286 21.2571L68.9048 21.1513L68.9119 21.1645C68.962 21.1645 68.985 21.1645 68.9943 21.175C69.0022 21.1839 69.0005 21.2004 68.9973 21.2307V24.4716C68.9973 24.5642 68.9902 24.5642 68.8906 24.5642H68.1791C68.0795 24.5642 68.0795 24.5575 68.0795 24.4716V23.2149C68.0795 23.1684 68.0839 23.1202 68.0896 23.0578C68.1002 22.9427 68.1152 22.7789 68.1152 22.4873C67.9755 22.759 67.8211 23.0239 67.6527 23.281L66.9413 24.4716C66.9375 24.4779 66.9341 24.4839 66.9308 24.4897C66.9032 24.5378 66.8881 24.5642 66.7991 24.5642H66.0877C65.9881 24.5642 65.9881 24.5575 65.9881 24.4716V21.396L65.988 21.3882C65.9878 21.3314 65.9875 21.2769 66.1304 21.2769L66.792 21.1513C66.856 21.1381 66.9129 21.1314 66.9129 21.2307V22.6329V23.3604C67.049 23.0797 67.201 22.806 67.3682 22.5402L68.0795 21.396C68.1649 21.2571 68.2005 21.2571 68.3286 21.2571Z" fill="#6D6E71"/>
</svg>
