<svg width="40" height="40" viewBox="0 0 40 40" fill="none" xmlns="http://www.w3.org/2000/svg">
<mask id="mask0_2482_348" style="mask-type:alpha" maskUnits="userSpaceOnUse" x="0" y="0" width="40" height="40">
<rect width="40" height="40" fill="#6B6B6B"/>
</mask>
<g mask="url(#mask0_2482_348)">
</g>
<g clip-path="url(#clip0_2482_348)">
<mask id="mask1_2482_348" style="mask-type:luminance" maskUnits="userSpaceOnUse" x="6" y="6" width="28" height="28">
<path d="M34 6H6V34H34V6Z" fill="white"/>
</mask>
<g mask="url(#mask1_2482_348)">
<path d="M25.8327 33.9998C21.873 33.9998 17.666 32.7725 17.666 30.4998C17.666 30.1778 17.9273 29.9165 18.2493 29.9165C18.5713 29.9165 18.8327 30.1778 18.8327 30.4998C18.8327 31.474 21.495 32.8332 25.8327 32.8332C30.1703 32.8332 32.8327 31.474 32.8327 30.4998C32.8327 30.1778 33.094 29.9165 33.416 29.9165C33.738 29.9165 33.9993 30.1778 33.9993 30.4998C33.9993 32.7725 29.7923 33.9998 25.8327 33.9998Z" fill="white"/>
<path d="M25.8327 30.4998C21.873 30.4998 17.666 29.2725 17.666 26.9998C17.666 26.6778 17.9273 26.4165 18.2493 26.4165C18.5713 26.4165 18.8327 26.6778 18.8327 26.9998C18.8327 27.974 21.495 29.3332 25.8327 29.3332C30.1703 29.3332 32.8327 27.974 32.8327 26.9998C32.8327 26.6778 33.094 26.4165 33.416 26.4165C33.738 26.4165 33.9993 26.6778 33.9993 26.9998C33.9993 29.2725 29.7923 30.4998 25.8327 30.4998Z" fill="white"/>
<path d="M25.8327 27C21.873 27 17.666 25.7727 17.666 23.5C17.666 21.2273 21.873 20 25.8327 20C29.7923 20 33.9993 21.2273 33.9993 23.5C33.9993 25.7727 29.7923 27 25.8327 27ZM25.8327 21.1667C21.495 21.1667 18.8327 22.5258 18.8327 23.5C18.8327 24.4742 21.495 25.8333 25.8327 25.8333C30.1703 25.8333 32.8327 24.4742 32.8327 23.5C32.8327 22.5258 30.1703 21.1667 25.8327 21.1667Z" fill="white"/>
<path d="M33.4173 31.0832C33.0953 31.0832 32.834 30.8218 32.834 30.4998V23.4998C32.834 23.1778 33.0953 22.9165 33.4173 22.9165C33.7393 22.9165 34.0007 23.1778 34.0007 23.4998V30.4998C34.0007 30.8218 33.7393 31.0832 33.4173 31.0832Z" fill="white"/>
<path d="M18.2493 31.0832C17.9273 31.0832 17.666 30.8218 17.666 30.4998V23.4998C17.666 23.1778 17.9273 22.9165 18.2493 22.9165C18.5713 22.9165 18.8327 23.1778 18.8327 23.4998V30.4998C18.8327 30.8218 18.5713 31.0832 18.2493 31.0832Z" fill="white"/>
<path d="M14.1667 19.9998C10.207 19.9998 6 18.7725 6 16.4998C6 16.1778 6.26133 15.9165 6.58333 15.9165C6.90533 15.9165 7.16667 16.1778 7.16667 16.4998C7.16667 17.474 9.829 18.8332 14.1667 18.8332C18.5043 18.8332 21.1667 17.474 21.1667 16.4998C21.1667 16.1778 21.428 15.9165 21.75 15.9165C22.072 15.9165 22.3333 16.1778 22.3333 16.4998C22.3333 18.7725 18.1263 19.9998 14.1667 19.9998Z" fill="white"/>
<path d="M14.1667 16.4998C10.207 16.4998 6 15.2725 6 12.9998C6 12.6778 6.26133 12.4165 6.58333 12.4165C6.90533 12.4165 7.16667 12.6778 7.16667 12.9998C7.16667 13.974 9.829 15.3332 14.1667 15.3332C18.5043 15.3332 21.1667 13.974 21.1667 12.9998C21.1667 12.6778 21.428 12.4165 21.75 12.4165C22.072 12.4165 22.3333 12.6778 22.3333 12.9998C22.3333 15.2725 18.1263 16.4998 14.1667 16.4998Z" fill="white"/>
<path d="M14.1667 26.9998C10.207 26.9998 6 25.7725 6 23.4998C6 23.1778 6.26133 22.9165 6.58333 22.9165C6.90533 22.9165 7.16667 23.1778 7.16667 23.4998C7.16667 24.474 9.829 25.8332 14.1667 25.8332C14.8013 25.8332 15.3543 25.8075 15.8548 25.755C16.171 25.72 16.4627 25.9533 16.4965 26.273C16.5303 26.5927 16.2982 26.8808 15.9785 26.9147C15.4348 26.973 14.8422 26.9998 14.1667 26.9998Z" fill="white"/>
<path d="M14.1667 30.4998C10.207 30.4998 6 29.2725 6 26.9998C6 26.6778 6.26133 26.4165 6.58333 26.4165C6.90533 26.4165 7.16667 26.6778 7.16667 26.9998C7.16667 27.974 9.829 29.3332 14.1667 29.3332C14.8013 29.3332 15.3543 29.3075 15.8548 29.255C16.171 29.2142 16.4627 29.4533 16.4965 29.773C16.5303 30.0927 16.2982 30.3808 15.9785 30.4147C15.4348 30.473 14.8422 30.4998 14.1667 30.4998Z" fill="white"/>
<path d="M14.1667 23.4998C10.207 23.4998 6 22.2725 6 19.9998C6 19.6778 6.26133 19.4165 6.58333 19.4165C6.90533 19.4165 7.16667 19.6778 7.16667 19.9998C7.16667 20.974 9.829 22.3332 14.1667 22.3332C14.8013 22.3332 15.3543 22.3075 15.8548 22.255C16.171 22.2177 16.4627 22.4522 16.4965 22.773C16.5303 23.0927 16.2982 23.3808 15.9785 23.4147C15.4348 23.473 14.8422 23.4998 14.1667 23.4998Z" fill="white"/>
<path d="M14.1667 13C10.207 13 6 11.7727 6 9.5C6 7.22733 10.207 6 14.1667 6C18.1263 6 22.3333 7.22733 22.3333 9.5C22.3333 11.7727 18.1263 13 14.1667 13ZM14.1667 7.16667C9.829 7.16667 7.16667 8.52583 7.16667 9.5C7.16667 10.4742 9.829 11.8333 14.1667 11.8333C18.5043 11.8333 21.1667 10.4742 21.1667 9.5C21.1667 8.52583 18.5043 7.16667 14.1667 7.16667Z" fill="white"/>
<path d="M6.58333 27.5832C6.26133 27.5832 6 27.3218 6 26.9998V9.49984C6 9.17784 6.26133 8.9165 6.58333 8.9165C6.90533 8.9165 7.16667 9.17784 7.16667 9.49984V26.9998C7.16667 27.3218 6.90533 27.5832 6.58333 27.5832Z" fill="white"/>
<path d="M21.7493 17.0832C21.4273 17.0832 21.166 16.8218 21.166 16.4998V9.49984C21.166 9.17784 21.4273 8.9165 21.7493 8.9165C22.0713 8.9165 22.3327 9.17784 22.3327 9.49984V16.4998C22.3327 16.8218 22.0713 17.0832 21.7493 17.0832Z" fill="white"/>
</g>
</g>
<defs>
<clipPath id="clip0_2482_348">
<rect width="28" height="28" fill="white" transform="translate(6 6)"/>
</clipPath>
</defs>
</svg>
