<svg width="40" height="40" viewBox="0 0 40 40" fill="none" xmlns="http://www.w3.org/2000/svg">
<mask id="mask0_2485_355" style="mask-type:alpha" maskUnits="userSpaceOnUse" x="0" y="0" width="40" height="40">
<rect width="40" height="40" fill="#6B6B6B"/>
</mask>
<g mask="url(#mask0_2485_355)">
</g>
<g clip-path="url(#clip0_2485_355)">
<path d="M31 20V34H9V20" stroke="white" stroke-linecap="round" stroke-linejoin="round"/>
<path d="M16 34V24H24V34" stroke="white"/>
<path d="M21.5 17.5H18.5V20.5H21.5V17.5Z" stroke="white"/>
<mask id="mask1_2485_355" style="mask-type:luminance" maskUnits="userSpaceOnUse" x="5" y="6" width="30" height="15">
<path fill-rule="evenodd" clip-rule="evenodd" d="M6.59875 16.6419C5.70807 17.3892 5.59189 18.7171 6.33927 19.6078C7.08664 20.4985 8.41455 20.6147 9.30523 19.8673L19.9997 10.8936L30.6942 19.8673C31.5849 20.6147 32.9128 20.4985 33.6602 19.6078C34.4075 18.7171 34.2914 17.3892 33.4007 16.6419L21.748 6.86409C21.7202 6.82606 21.6909 6.7887 21.6602 6.75207C21.233 6.24299 20.6162 5.98693 19.9997 6.00051C19.3833 5.98693 18.7664 6.24299 18.3393 6.75207C18.3085 6.7887 18.2793 6.82606 18.2514 6.86409L6.59875 16.6419Z" fill="white"/>
</mask>
<g mask="url(#mask1_2485_355)">
<path d="M19.9997 10.8936L20.6425 10.1275L19.9997 9.58817L19.3569 10.1275L19.9997 10.8936ZM21.748 6.86409L20.9408 7.45446L21.0124 7.55226L21.1052 7.63014L21.748 6.86409ZM19.9997 6.00051L19.9777 7.00027L19.9997 7.00076L20.0217 7.00027L19.9997 6.00051ZM18.2514 6.86409L18.8942 7.63014L18.9871 7.55226L19.0586 7.45446L18.2514 6.86409ZM7.10533 18.965C6.71296 18.4974 6.77395 17.8003 7.24156 17.4079L5.95599 15.8758C4.64223 16.9782 4.47087 18.9369 5.57325 20.2506L7.10533 18.965ZM8.66246 19.1013C8.19485 19.4936 7.4977 19.4326 7.10533 18.965L5.57325 20.2506C6.67562 21.5644 8.63428 21.7357 9.94804 20.6334L8.66246 19.1013ZM19.3569 10.1275L8.66246 19.1013L9.94804 20.6334L20.6425 11.6596L19.3569 10.1275ZM19.3569 11.6596L30.0514 20.6334L31.337 19.1013L20.6425 10.1275L19.3569 11.6596ZM30.0514 20.6334C31.3652 21.7357 33.3238 21.5644 34.4262 20.2506L32.8941 18.965C32.5017 19.4326 31.8046 19.4936 31.337 19.1013L30.0514 20.6334ZM34.4262 20.2506C35.5286 18.9369 35.3572 16.9782 34.0435 15.8758L32.7579 17.4079C33.2255 17.8003 33.2865 18.4974 32.8941 18.965L34.4262 20.2506ZM34.0435 15.8758L22.3908 6.09805L21.1052 7.63014L32.7579 17.4079L34.0435 15.8758ZM20.8941 7.39486C20.9106 7.41446 20.9261 7.43434 20.9408 7.45446L22.5551 6.27373C22.5142 6.21779 22.4712 6.16294 22.4262 6.10929L20.8941 7.39486ZM20.0217 7.00027C20.348 6.99308 20.6701 7.12793 20.8941 7.39486L22.4262 6.10929C21.7958 5.35804 20.8843 4.98077 19.9777 5.00075L20.0217 7.00027ZM20.0217 5.00075C19.1151 4.98077 18.2036 5.35804 17.5732 6.10929L19.1053 7.39486C19.3293 7.12793 19.6514 6.99308 19.9777 7.00027L20.0217 5.00075ZM17.5732 6.10929C17.5282 6.16294 17.4852 6.21779 17.4443 6.27373L19.0586 7.45446C19.0733 7.43434 19.0889 7.41446 19.1053 7.39486L17.5732 6.10929ZM7.24156 17.4079L18.8942 7.63014L17.6087 6.09805L5.95599 15.8758L7.24156 17.4079Z" fill="white"/>
</g>
<path d="M27 12V7H31V15" stroke="white" stroke-linejoin="round"/>
</g>
<defs>
<clipPath id="clip0_2485_355">
<rect width="30" height="29" fill="white" transform="translate(5 6)"/>
</clipPath>
</defs>
</svg>
