<svg width="40" height="40" viewBox="0 0 40 40" fill="none" xmlns="http://www.w3.org/2000/svg">
<mask id="mask0_2492_378" style="mask-type:alpha" maskUnits="userSpaceOnUse" x="0" y="0" width="40" height="40">
<rect width="40" height="40" fill="#6B6B6B"/>
</mask>
<g mask="url(#mask0_2492_378)">
</g>
<g clip-path="url(#clip0_2492_378)">
<path d="M33.125 20C33.125 27.2487 27.2487 33.125 20 33.125C12.7513 33.125 6.875 27.2487 6.875 20C6.875 12.7513 12.7513 6.875 20 6.875C27.2487 6.875 33.125 12.7513 33.125 20Z" stroke="white"/>
<path fill-rule="evenodd" clip-rule="evenodd" d="M23.2805 21.6848C23.0172 21.5868 22.8259 21.5378 22.6344 21.8318C22.4432 22.1258 21.893 22.7875 21.7255 22.9835C21.5581 23.1795 21.3907 23.204 21.1036 23.057C20.8166 22.91 19.8917 22.5999 18.7953 21.5991C17.9421 20.8203 17.3659 19.8584 17.1985 19.5643C17.0311 19.2702 17.1807 19.1113 17.3244 18.9648C17.4535 18.8332 17.6114 18.6218 17.7549 18.4502C17.8984 18.2787 17.9463 18.1561 18.0419 17.9601C18.1377 17.7641 18.0898 17.5926 18.018 17.4456C17.9463 17.2985 17.3722 15.8526 17.133 15.2646C16.9001 14.6918 16.6633 14.7693 16.4872 14.7604C16.3199 14.7518 16.1307 14.75 15.9417 14.75C15.7527 14.75 15.4463 14.8235 15.1833 15.1176C14.9202 15.4116 14.167 16.1223 14.167 17.5681C14.167 19.0138 15.1897 20.4106 15.3332 20.6066C15.4767 20.8026 17.3631 23.7695 20.2425 25.0419C20.9274 25.3445 21.462 25.5253 21.8789 25.6607C22.5665 25.8841 23.1923 25.8526 23.6869 25.777C24.2384 25.6927 25.3851 25.0665 25.6244 24.3804C25.8636 23.6941 25.8636 23.1061 25.7918 22.9836C25.7201 22.861 25.5288 22.7875 25.2417 22.6405C24.9546 22.4935 23.5439 21.7828 23.2805 21.6848Z" fill="white"/>
</g>
<defs>
<clipPath id="clip0_2492_378">
<rect width="28" height="28" fill="white" transform="translate(6 6)"/>
</clipPath>
</defs>
</svg>
