<svg width="40" height="40" viewBox="0 0 40 40" fill="none" xmlns="http://www.w3.org/2000/svg">
<mask id="mask0_2491_365" style="mask-type:alpha" maskUnits="userSpaceOnUse" x="0" y="0" width="40" height="40">
<rect width="40" height="40" fill="#6B6B6B"/>
</mask>
<g mask="url(#mask0_2491_365)">
</g>
<g clip-path="url(#clip0_2491_365)">
<path d="M10.1968 10.7679C10.3352 10.511 10.6926 10.3742 10.9843 10.4865L13.8841 11.6639L14.1622 11.7768L14.4056 11.6016C14.96 11.2023 15.5023 10.8836 16.049 10.6346L16.3188 10.5117L16.3602 10.219L16.8019 7.10155L16.8032 7.09161C16.8407 6.78635 17.1122 6.54004 17.4426 6.54004H22.56C22.8883 6.54004 23.1628 6.78441 23.2016 7.10061L23.2029 7.11066L23.6434 10.2168L23.685 10.5098L23.9552 10.6326C24.5218 10.8899 25.0719 11.2129 25.5987 11.5973L25.8428 11.7754L26.123 11.6616L29.0107 10.4893C29.3537 10.3646 29.667 10.5071 29.814 10.7788L29.8201 10.7899L32.3684 15.2485C32.538 15.5687 32.4541 15.9238 32.2145 16.1159C32.2142 16.1161 32.214 16.1164 32.2137 16.1166L29.7595 18.0565L29.5256 18.2414L29.5575 18.5373C29.5882 18.823 29.6123 19.1529 29.6123 19.499C29.6123 19.844 29.5872 20.1741 29.5572 20.4624L29.5266 20.7572L29.7595 20.9413L32.2105 22.8795C32.211 22.8798 32.2114 22.8801 32.2118 22.8804C32.458 23.0791 32.5353 23.4357 32.3741 23.7389L29.8144 28.2216L29.808 28.233C29.7026 28.4286 29.489 28.5585 29.2561 28.5585C29.1762 28.5585 29.0986 28.544 29.0211 28.5138L26.1207 27.3362L25.8425 27.2232L25.5991 27.3986C25.0439 27.7988 24.5024 28.1166 23.955 28.3669L23.686 28.4901L23.6445 28.7823L23.2029 31.8985L23.2015 31.9085C23.1643 32.213 22.8921 32.46 22.5611 32.46H17.4437C17.115 32.46 16.8411 32.2166 16.8021 31.8976L16.8008 31.8872L16.3602 28.7822L16.3187 28.4896L16.0492 28.3667C15.482 28.1081 14.9317 27.7848 14.4059 27.4015L14.1619 27.2237L13.8819 27.3373L10.9945 28.5095C10.6473 28.6351 10.3382 28.4921 10.1906 28.2197L10.1847 28.209L7.63626 23.7504C7.46683 23.4313 7.54968 23.076 7.7895 22.8828C7.78989 22.8825 7.79027 22.8823 7.79066 22.882L10.2442 20.9425L10.4766 20.7588L10.4465 20.4646C10.409 20.098 10.3915 19.7872 10.3915 19.5C10.3915 19.2129 10.409 18.902 10.4465 18.537L10.4767 18.2427L10.2443 18.0589L7.79284 16.1204C7.79245 16.1201 7.79206 16.1198 7.79168 16.1195C7.53524 15.9131 7.46611 15.539 7.63212 15.2552L7.63485 15.2505L10.1902 10.7798L10.1968 10.7679Z" stroke="white"/>
<path d="M20.0011 23.46C17.8534 23.46 16.0928 21.6908 16.0928 19.5C16.0928 17.3092 17.8534 15.54 20.0011 15.54C22.1488 15.54 23.9094 17.3092 23.9094 19.5C23.9094 21.6908 22.1488 23.46 20.0011 23.46Z" stroke="white"/>
</g>
<defs>
<clipPath id="clip0_2491_365">
<rect width="26" height="27" fill="white" transform="translate(7 6)"/>
</clipPath>
</defs>
</svg>
